<?xml version="1.0" encoding="UTF-8" standalone="no"?>
<!-- Created with Inkscape (http://www.inkscape.org/) -->

<svg
   width="33.815281mm"
   height="33.815289mm"
   viewBox="0 0 33.815281 33.815289"
   version="1.1"
   id="svg1"
   xml:space="preserve"
   xmlns="http://www.w3.org/2000/svg"
   xmlns:svg="http://www.w3.org/2000/svg"><defs
     id="defs1" /><g
     id="layer1"
     transform="translate(-72.815164,-134.9394)"><path
       id="rect1-5"
       style="opacity:0.874699;fill:#f7e8d3;fill-opacity:1;stroke-width:0.729294;stroke-linecap:round;stroke-linejoin:round;stroke-miterlimit:3;paint-order:markers fill stroke"
       d="m 40.200143,135.26112 h 24.160131 a 4.8275769,4.8275769 45 0 1 4.827577,4.82758 v 24.16013 a 4.8275769,4.8275769 135 0 1 -4.827577,4.82758 H 40.200143 a 4.8275769,4.8275769 45 0 1 -4.827577,-4.82758 V 140.0887 a 4.8275769,4.8275769 135 0 1 4.827577,-4.82758 z"
       transform="translate(37.442594,-0.32172299)" /><path
       d="m 94.247693,162.77703 c -0.673043,-0.10579 -1.154997,-0.3829 -1.533789,-0.88188 -0.356879,-0.47012 -0.576557,-0.9912 -1.11888,-2.65403 -0.987121,-3.02662 -1.204552,-3.65445 -1.409808,-4.0708 -0.449838,-0.91246 -0.94026,-1.35873 -1.713396,-1.55913 -0.319206,-0.0827 -1.045098,-0.10324 -1.793689,-0.0506 l -0.376959,0.0265 v 4.47637 4.47638 l -0.260971,0.0416 c -1.125009,0.17918 -3.389753,0.17936 -4.504179,3.5e-4 l -0.260972,-0.0419 v -10.74068 -10.74069 l 0.318965,-0.0431 c 1.228831,-0.16606 3.244852,-0.16558 4.407523,0.001 l 0.299634,0.043 v 4.15697 4.15697 l 0.570272,-0.0265 c 0.875445,-0.0407 1.059219,-0.11672 1.363,-0.56406 0.08285,-0.122 0.81439,-1.47237 1.625653,-3.00082 1.981687,-3.73358 1.994114,-3.75646 2.160648,-3.97754 0.379857,-0.50429 0.779385,-0.75244 1.381506,-0.85808 0.282981,-0.0496 0.543368,-0.0555 1.520654,-0.0342 0.648563,0.0142 1.410752,0.0468 1.693753,0.0725 0.554439,0.0503 0.527405,0.0383 0.726814,0.32368 0.05557,0.0795 -0.04572,0.28049 -1.97787,3.92424 -1.12004,2.11224 -2.16316,4.03181 -2.318045,4.26572 -0.317952,0.48017 -0.723592,0.96367 -1.030137,1.22785 -0.144262,0.12433 -0.189298,0.18358 -0.148851,0.19583 0.0319,0.01 0.197179,0.0552 0.367294,0.10123 0.446783,0.12086 1.108328,0.45823 1.435194,0.7319 0.360799,0.30208 0.727215,0.79631 1.037909,1.39996 0.340599,0.66175 0.424272,0.88843 1.246563,3.37695 0.392964,1.18924 0.793116,2.37701 0.889228,2.63948 0.268951,0.73448 0.815327,1.63453 1.225798,2.01927 0.055,0.0515 0.1,0.10719 0.1,0.12365 0,0.0768 -0.418777,0.52019 -0.668652,0.70789 -0.469465,0.35264 -0.953409,0.56495 -1.593103,0.6989 -0.363338,0.0761 -1.326592,0.10852 -1.661106,0.0559 z"
       style="fill:#212121;fill-opacity:1"
       id="path1-2-3" /></g></svg>
